<?xml version="1.0" encoding="UTF-8"?>
<svg width="512" height="512" viewBox="0 0 24 24" xmlns="http://www.w3.org/2000/svg">
    <defs>
        <linearGradient id="gradient" x1="0%" y1="0%" x2="100%" y2="100%">
            <stop offset="0%" style="stop-color:#818cf8"/>
            <stop offset="50%" style="stop-color:#c084fc"/>
            <stop offset="100%" style="stop-color:#e879f9"/>
        </linearGradient>
    </defs>
    <path fill="url(#gradient)" d="M15.5 3C17.97 3 20 5.03 20 7.5c0 1.11-.41 2.14-1.08 2.93.04.19.08.39.08.57 0 1.66-1.34 3-3 3-.78 0-1.49-.3-2.03-.78-.26.97-1.14 1.78-2.47 1.78-.78 0-1.49-.3-2.03-.78-.26.97-1.14 1.78-2.47 1.78-1.66 0-3-1.34-3-3 0-.18.04-.38.08-.57C3.41 9.64 3 8.61 3 7.5 3 5.03 5.03 3 7.5 3c1.11 0 2.14.41 2.93 1.08.19-.04.39-.08.57-.08.78 0 1.49.3 2.03.78.26-.97 1.14-1.78 2.47-1.78M8 7v6h2V7H8m6 0v6h2V7h-2Z"/>
</svg>
